itch Black 2000 BluRay 1080p DTS x264-LoNeWoLf

Encoded by Tequila-Bob a.k.a. bobnjeff a.k.a.LoNeWoLf

Source - NTSC BluRay Disc

 
http://www.imdb.com/title/tt0134847/

Release Date:18 February 2000 (USA)

Motion Picture Rating (MPAA)
Rated R for sci-fi violence and gore, and for language

More at IMDbPro » Pitch Black (2000) 
  109 min  -  Action | Sci-Fi | Thriller   -  18 February 2000 (USA) 
 7.0/10 X  Users: 7.0/10 (56,191 votes) 768 reviews | Critics: 203 reviews 
A group of marooned space travelers struggle for survival on a seemingly lifeless sun-scorched world. 

Director: David Twohy
Writers: Jim Wheat (story), Ken Wheat (story), and 3 more credits » 
Stars:Radha Mitchell, Cole Hauser and Vin Diesel

Cast
Complete credited cast: 
  Vin Diesel  ...  Richard B. Riddick  
  Radha Mitchell  ...  Carolyn Fry  
  Cole Hauser  ...  William J. Johns  
  Keith David  ...  Abu 'Imam' al-Walid  
  Lewis Fitz-Gerald  ...  Paris P. Ogilvie  
  Claudia Black  ...  Sharon 'Shazza' Montgomery  
  Rhiana Griffith  ...  Jack / Jackie  
  John Moore  ...  John 'Zeke' Ezekiel  
  Simon Burke  ...  Greg Owens  
  Les Chantery  ...  Suleiman  
  Sam Sari  ...  Hassan  
  Firass Dirani  ...  Ali  
  Ric Anderson  ...  Total Stranger  
  Vic Wilson  ...  Captain Tom Mitchell 

Storyline
The space transport vessel "Hunter-Gratzner" carrying 40 people on-board crashes on a desert planet when the ship is struck in a meteor storm. There are only 10 survivors, among them are pilot Carolyn Fry (Who has assumed command after the ship's captain is killed), bounty hunter William J. Johns, religious man Abu "Imam" al-Walid, Antiques dealer Paris P. Ogilvie, runaway teenage girl Jack, settlers John 'Zeke' Ezekiel and his lover Sharon 'Shazza' Montgomery and Richard B. Riddick, a dangerous escaped convict. Marooned, the 10 survivors finds the barren and hot desert-scape has sunlight from three suns. Not only they find food and water, and worry about Riddick, the survivors finds themselves being hunted by the planet's flesh eating alien inhabits, when the planet is engulfed in darkness, which happens every 22 years, as they come out on to the surface to hunt and eat all signs of life... Written by Daniel Williamson




Click on link below to view 1920x816 PNG files


 
http://s1015.photobucket.com/albums/af279/tequila-bob/Pitch%20Black%202000/





Format : Matroska 
File size : 7.96 GiB 
Duration : 1h 51mn 
Overall bit rate : 10.2 Mbps 
Encoded date : UTC 2010-11-16 20:57:26 
Writing application : mkvmerge v4.4.0 ('Die Wiederkehr') built on Oct 31 2010 21:52:48 
Writing library : libebml v1.0.0 + libmatroska v1.0.0 

Video 
ID : 1 
Format : AVC 
Format/Info : Advanced Video Codec 
Format profile : High@L4.1 
Format settings, CABAC : Yes 
Format settings, ReFrames : 3 frames 
Muxing mode : Container profile=Unknown@4.1 
Codec ID : V_MPEG4/ISO/AVC 
Duration : 1h 51mn 
Bit rate mode : Variable 
Bit rate : 8 661 Kbps 
Maximum bit rate : 40.0 Mbps 
Width : 1 920 pixels 
Height : 816 pixels 
Display aspect ratio : 2.35:1 
Frame rate : 23.976 fps 
Color space : YUV 
Chroma subsampling : 4:2:0 
Bit depth : 8 bits 
Scan type : Progressive 
Bits/(Pixel*Frame) : 0.231 
Stream size : 6.62 GiB (83%) 
Writing library : x264 core 98 r1649 c54c47d 
Encoding settings : cabac=1 / ref=4 / deblock=1:-2:-1 / analyse=0x3:0x113 / me=hex / subme=9 / psy=1 / psy_rd=1.00:0.15 / mixed_ref=1 / me_range=16 / chroma_me=1 / trellis=1 / 8x8dct=1 / cqm=0 / deadzone=21,11 / fast_pskip=1 / chroma_qp_offset=-3 / threads=6 / sliced_threads=0 / slices=4 / nr=0 / decimate=1 / interlaced=0 / constrained_intra=0 / bframes=3 / b_pyramid=1 / b_adapt=1 / b_bias=0 / direct=1 / weightb=1 / weightp=0 / keyint=24 / keyint_min=2 / scenecut=40 / intra_refresh=0 / rc_lookahead=24 / rc=2pass / mbtree=1 / bitrate=8661 / ratetol=1.0 / qcomp=0.60 / qpmin=10 / qpmax=51 / qpstep=4 / cplxblur=20.0 / qblur=0.5 / vbv_maxrate=40000 / vbv_bufsize=30000 / ip_ratio=1.40 / aq=1:1.00 / nal_hrd=vbr 
Language : English 
Color primaries : BT.709-5, BT.1361, IEC 61966-2-4, SMPTE RP177 
Transfer characteristics : BT.709-5, BT.1361 
Matrix coefficients : BT.709-5, BT.1361, IEC 61966-2-4 709, SMPTE RP177 

Audio 
ID : 2 
Format : DTS 
Format/Info : Digital Theater Systems 
Codec ID : A_DTS 
Duration : 1h 51mn 
Bit rate mode : Constant 
Bit rate : 1 510 Kbps 
Channel(s) : 6 channels 
Channel positions : Front: L C R, Side: L R, LFE 
Sampling rate : 48.0 KHz 
Bit depth : 24 bits 
Video delay : 10ms 
Stream size : 1.18 GiB (15%)   
Title : 3/2+1 
Language : English 

Text #1 
Language : English 
Language : Spanish 
Language : French 

Menu Chapters 17


 


Click on link below to view 1920x816 PNG files


 
http://s1015.photobucket.com/albums/af279/tequila-bob/Pitch%20Black%202000/


